<svg width="69" height="36" viewBox="0 0 69 36" fill="none" xmlns="http://www.w3.org/2000/svg">
<path d="M67 0H2C0.89543 0 0 0.89543 0 2C0 3.10457 0.89543 4 2 4H67C68.1046 4 69 3.10457 69 2C69 0.89543 68.1046 0 67 0Z" fill="black"/>
<path d="M67 0.5H2C1.17157 0.5 0.5 1.17157 0.5 2C0.5 2.82843 1.17157 3.5 2 3.5H67C67.8284 3.5 68.5 2.82843 68.5 2C68.5 1.17157 67.8284 0.5 67 0.5Z" stroke="black"/>
<path d="M67 16H2C0.89543 16 0 16.8954 0 18C0 19.1046 0.89543 20 2 20H67C68.1046 20 69 19.1046 69 18C69 16.8954 68.1046 16 67 16Z" fill="black"/>
<path d="M67 16.5H2C1.17157 16.5 0.5 17.1716 0.5 18C0.5 18.8284 1.17157 19.5 2 19.5H67C67.8284 19.5 68.5 18.8284 68.5 18C68.5 17.1716 67.8284 16.5 67 16.5Z" stroke="black"/>
<path d="M67 32H2C0.89543 32 0 32.8954 0 34C0 35.1046 0.89543 36 2 36H67C68.1046 36 69 35.1046 69 34C69 32.8954 68.1046 32 67 32Z" fill="black"/>
<path d="M67 32.5H2C1.17157 32.5 0.5 33.1716 0.5 34C0.5 34.8284 1.17157 35.5 2 35.5H67C67.8284 35.5 68.5 34.8284 68.5 34C68.5 33.1716 67.8284 32.5 67 32.5Z" stroke="black"/>
</svg>
